<svg width="174" height="30" viewBox="0 0 174 30" fill="none" xmlns="http://www.w3.org/2000/svg">
<g id="Group_124.svg" clip-path="url(#clip0_3_371)">
<g id="Group" opacity="0.6">
<path id="Vector" d="M2.66172 28.3935C1.93327 28.3935 1.30989 28.1344 0.791596 27.6161C0.273292 27.0978 0.0137003 26.4739 0.0128174 25.7446V12.5001C0.0128174 11.7716 0.272409 11.1483 0.791596 10.63C1.31078 10.1117 1.93415 9.8521 2.66172 9.85122H3.98616V7.20232C3.98616 5.37017 4.63206 3.80864 5.92383 2.51775C7.21561 1.22685 8.77714 0.580962 10.6084 0.580079C12.4397 0.579196 14.0017 1.22509 15.2943 2.51775C16.587 3.81041 17.2324 5.37194 17.2307 7.20232V9.85122H18.5551C19.2836 9.85122 19.9074 10.1109 20.4266 10.63C20.9458 11.1492 21.2049 11.7725 21.204 12.5001V25.7446C21.204 26.4731 20.9449 27.0969 20.4266 27.6161C19.9083 28.1353 19.2845 28.3944 18.5551 28.3935H2.66172ZM2.66172 25.7446H18.5551V12.5001H2.66172V25.7446ZM10.6084 21.7713C11.3369 21.7713 11.9607 21.5121 12.4798 20.9938C12.999 20.4755 13.2582 19.8517 13.2573 19.1224C13.2564 18.3931 12.9973 17.7696 12.4798 17.2523C11.9624 16.7348 11.3386 16.4752 10.6084 16.4734C9.8782 16.4717 9.25484 16.7313 8.73829 17.2523C8.22175 17.7732 7.96219 18.3966 7.95954 19.1224C7.95688 19.8482 8.21645 20.472 8.73829 20.9938C9.26014 21.5157 9.8835 21.7748 10.6084 21.7713ZM6.63506 9.85122H14.5818V7.20232C14.5818 6.09862 14.1955 5.16047 13.4228 4.38787C12.6503 3.61527 11.7122 3.22898 10.6084 3.22898C9.50467 3.22898 8.56653 3.61527 7.79397 4.38787C7.02136 5.16047 6.63506 6.09862 6.63506 7.20232V9.85122Z" fill="white"/>
<path id="Vector_2" d="M35.7754 3.6027H37.506V12.2558H35.5281V5.6918L33.9953 6.11209L33.5133 4.41856L35.7754 3.6027ZM41.8983 12.4288C39.6609 12.4288 38.3753 10.5993 38.3753 7.92923C38.3753 5.25915 39.6609 3.42964 41.8983 3.42964C44.1357 3.42964 45.4214 5.25915 45.4214 7.92923C45.4214 10.5993 44.1357 12.4288 41.8983 12.4288ZM41.8983 10.5004C42.9367 10.5004 43.4435 9.59803 43.4435 7.92923C43.4435 6.26043 42.9367 5.35804 41.8983 5.35804C40.8599 5.35804 40.3531 6.26043 40.3531 7.92923C40.3531 9.59803 40.8599 10.5004 41.8983 10.5004ZM49.3138 12.4288C47.0763 12.4288 45.7908 10.5993 45.7908 7.92923C45.7908 5.25915 47.0763 3.42964 49.3138 3.42964C51.5512 3.42964 52.8368 5.25915 52.8368 7.92923C52.8368 10.5993 51.5512 12.4288 49.3138 12.4288ZM49.3138 10.5004C50.3521 10.5004 50.859 9.59803 50.859 7.92923C50.859 6.26043 50.3521 5.35804 49.3138 5.35804C48.2754 5.35804 47.7686 6.26043 47.7686 7.92923C47.7686 9.59803 48.2754 10.5004 49.3138 10.5004ZM55.2393 7.63255C54.0032 7.63255 53.0884 6.69308 53.0884 5.5311C53.0884 4.36911 54.0032 3.42964 55.2393 3.42964C56.4631 3.42964 57.3778 4.33203 57.3778 5.5311C57.3778 6.69308 56.4631 7.63255 55.2393 7.63255ZM54.1144 10.896L59.7018 4.71523L60.5177 5.18497L54.9303 11.3781L54.1144 10.896ZM55.227 6.21098C55.6225 6.21098 55.8945 5.88958 55.8945 5.5311C55.8945 5.14789 55.6225 4.85121 55.227 4.85121C54.8437 4.85121 54.5718 5.14789 54.5718 5.5311C54.5718 5.91431 54.8437 6.21098 55.227 6.21098ZM59.6523 12.4041C58.4162 12.4041 57.5015 11.4646 57.5015 10.3026C57.5015 9.14068 58.4162 8.20122 59.6523 8.20122C60.8761 8.20122 61.7909 9.14068 61.7909 10.3026C61.7909 11.4646 60.8761 12.4041 59.6523 12.4041ZM59.64 10.9825C60.0356 10.9825 60.3075 10.6611 60.3075 10.3026C60.3075 9.91944 60.0356 9.6228 59.64 9.6228C59.2568 9.6228 58.9848 9.91944 58.9848 10.3026C58.9848 10.6859 59.2568 10.9825 59.64 10.9825ZM68.3076 12.4288C66.2556 12.4288 65.0071 10.9701 65.0071 9.06652C65.0071 7.07629 65.3903 6.02556 67.3682 5.049C68.6909 4.39384 69.2348 4.23314 69.5933 3.35547L71.1261 4.23314C70.8788 5.27151 70.1125 5.72888 68.8021 6.22334C67.702 6.63127 67.3806 6.98976 67.2075 7.42241C67.6525 7.02684 68.2582 6.84142 68.901 6.84142C70.0382 6.84142 71.4598 7.7809 71.4598 9.53625C71.4598 11.205 70.2484 12.4288 68.3076 12.4288ZM68.2953 10.76C69.0617 10.76 69.6056 10.2409 69.6056 9.53625C69.6056 8.81927 69.037 8.28769 68.2582 8.28769C67.6154 8.28769 66.9479 8.72034 66.9479 9.48679C66.9479 10.2409 67.5413 10.76 68.2953 10.76ZM73.6155 9.90706C73.8502 10.5499 74.4193 10.7724 75.099 10.7724C75.6054 10.7724 76.0381 10.5746 76.2858 10.3026L77.769 11.1556C77.1631 11.9961 76.2482 12.4288 75.0739 12.4288C72.9603 12.4288 71.65 11.0072 71.65 9.16538C71.65 7.32352 72.985 5.90194 74.9383 5.90194C76.7429 5.90194 78.0779 7.2988 78.0779 9.16538C78.0779 9.42501 78.0536 9.67219 78.0035 9.90706H73.6155ZM73.5784 8.52256H76.2364C76.0381 7.80562 75.4823 7.54602 74.9257 7.54602C74.221 7.54602 73.7514 7.89215 73.5784 8.52256ZM82.3963 9.11591C82.9772 9.42501 83.2986 9.94414 83.2986 10.5746C83.2986 11.6006 82.4081 12.4288 80.7399 12.4288C79.5036 12.4288 78.6256 11.9591 78.1435 10.9578L79.6393 10.0678C79.8125 10.5499 80.1958 10.8218 80.7642 10.8218C81.222 10.8218 81.4933 10.6488 81.4933 10.3397C81.4933 10.0678 81.3208 9.90706 80.9124 9.90706H80.0477V8.34954H80.7148C81.1107 8.34954 81.2957 8.20122 81.2957 7.92923C81.2957 7.63256 81.0613 7.48422 80.7148 7.48422C80.2452 7.48422 79.9238 7.70672 79.7012 8.20122L78.2054 7.34824C78.7244 6.34696 79.6149 5.90194 80.6779 5.90194C82.1862 5.90194 83.0509 6.77961 83.0509 7.75617C83.0509 8.32477 82.8408 8.80689 82.3963 9.11591ZM86.8231 12.4288C85.0059 12.4288 83.5478 11.0072 83.5478 9.16538C83.5478 7.32352 85.0059 5.90194 86.8231 5.90194C88.6402 5.90194 90.0991 7.32352 90.0991 9.16538C90.0991 11.0072 88.6402 12.4288 86.8231 12.4288ZM86.8231 10.624C87.6266 10.624 88.2451 10.0431 88.2451 9.16538C88.2451 8.28769 87.6266 7.70672 86.8231 7.70672C86.0195 7.70672 85.4018 8.28769 85.4018 9.16538C85.4018 10.0431 86.0195 10.624 86.8231 10.624ZM96.587 6.07501V12.2558H94.733V7.80562H92.6313V12.2558H90.7773V6.07501H96.587ZM102.064 6.07501H103.918V12.2558H102.064V11.6748C101.656 12.1445 101.051 12.4288 100.222 12.4288C98.6032 12.4288 97.2682 11.0072 97.2682 9.16538C97.2682 7.32352 98.6032 5.90194 100.222 5.90194C101.051 5.90194 101.656 6.18626 102.064 6.656V6.07501ZM100.593 10.6735C101.446 10.6735 102.064 10.0925 102.064 9.16538C102.064 8.2383 101.446 7.65728 100.593 7.65728C99.7399 7.65728 99.1222 8.2383 99.1222 9.16538C99.1222 10.0925 99.7399 10.6735 100.593 10.6735ZM107.875 12.4288C105.996 12.4288 104.599 11.0072 104.599 9.16538C104.599 7.32352 105.996 5.90194 107.875 5.90194C109.073 5.90194 110.136 6.53238 110.669 7.48422L109.049 8.4237C108.839 7.99105 108.394 7.73145 107.85 7.73145C107.046 7.73145 106.453 8.31246 106.453 9.16538C106.453 10.0183 107.046 10.5993 107.85 10.5993C108.394 10.5993 108.851 10.3397 109.049 9.90706L110.669 10.8342C110.136 11.7984 109.086 12.4288 107.875 12.4288ZM115.06 6.07501H116.914V12.2558H115.06V10.0307H112.958V12.2558H111.104V6.07501H112.958V8.30008H115.06V6.07501ZM122.391 6.07501H124.245V12.2558H122.391V11.6748C121.983 12.1445 121.378 12.4288 120.549 12.4288C118.93 12.4288 117.595 11.0072 117.595 9.16538C117.595 7.32352 118.93 5.90194 120.549 5.90194C121.378 5.90194 121.983 6.18626 122.391 6.656V6.07501ZM120.92 10.6735C121.773 10.6735 122.391 10.0925 122.391 9.16538C122.391 8.2383 121.773 7.65728 120.92 7.65728C120.067 7.65728 119.449 8.2383 119.449 9.16538C119.449 10.0925 120.067 10.6735 120.92 10.6735ZM130.365 6.07501V12.2558H128.56V10.4757H128.177L126.904 12.2558H124.802L126.248 10.2161C125.482 9.8329 125.05 9.04175 125.05 8.27538C125.05 7.18754 125.853 6.07501 127.349 6.07501H130.365ZM127.509 7.70672C127.114 7.70672 126.854 7.9416 126.854 8.33716C126.854 8.72034 127.114 8.9429 127.509 8.9429H128.56V7.70672H127.509ZM137.045 12.4288C135.166 12.4288 133.769 11.0072 133.769 9.16538C133.769 7.32352 135.166 5.90194 137.045 5.90194C138.244 5.90194 139.307 6.53238 139.839 7.48422L138.219 8.4237C138.009 7.99105 137.564 7.73145 137.02 7.73145C136.216 7.73145 135.624 8.31246 135.624 9.16538C135.624 10.0183 136.216 10.5993 137.02 10.5993C137.564 10.5993 138.022 10.3397 138.219 9.90706L139.839 10.8342C139.307 11.7984 138.256 12.4288 137.045 12.4288ZM145.96 10.5252H146.764V13.9122H144.959V12.2558H141.523V13.9122H139.718V10.5252H140.485C140.793 10.0431 140.979 9.44971 140.979 8.38662V6.07501H145.96V10.5252ZM142.426 10.5252H144.156V7.73145H142.784V8.38662C142.784 9.289 142.66 9.96891 142.426 10.5252ZM148.731 9.90706C148.965 10.5499 149.534 10.7724 150.214 10.7724C150.721 10.7724 151.154 10.5746 151.401 10.3026L152.884 11.1556C152.278 11.9961 151.364 12.4288 150.19 12.4288C148.075 12.4288 146.765 11.0072 146.765 9.16538C146.765 7.32352 148.1 5.90194 150.053 5.90194C151.858 5.90194 153.193 7.2988 153.193 9.16538C153.193 9.42501 153.168 9.67219 153.119 9.90706H148.731ZM148.694 8.52256H151.351C151.154 7.80562 150.597 7.54602 150.041 7.54602C149.337 7.54602 148.866 7.89215 148.694 8.52256ZM159.01 6.07501V12.2558H157.156V7.85506H155.821V9.69696C155.821 11.5635 154.881 12.4659 153.076 12.2558V10.5252C153.657 10.6982 153.966 10.3397 153.966 9.57334V6.07501H159.01ZM165.931 12.2558H163.83L161.852 9.52387V12.2558H159.998V6.07501H161.852V8.78219L163.706 6.07501H165.869L163.619 9.16538L165.931 12.2558ZM170.355 6.07501H172.209V12.2558H170.355V11.6748C169.947 12.1445 169.341 12.4288 168.514 12.4288C166.894 12.4288 165.559 11.0072 165.559 9.16538C165.559 7.32352 166.894 5.90194 168.514 5.90194C169.341 5.90194 169.947 6.18626 170.355 6.656V6.07501ZM168.884 10.6735C169.737 10.6735 170.355 10.0925 170.355 9.16538C170.355 8.2383 169.737 7.65728 168.884 7.65728C168.032 7.65728 167.413 8.2383 167.413 9.16538C167.413 10.0925 168.032 10.6735 168.884 10.6735Z" fill="white"/>
<path id="Vector_3" d="M37.3354 24.1898C37.8431 24.4008 38.0969 24.7832 38.0969 25.337C38.0969 25.7458 37.9585 26.082 37.6816 26.3457C37.4113 26.6028 37.0223 26.7314 36.5146 26.7314H34.0424V21.7868H36.3169C36.8113 21.7868 37.1937 21.912 37.464 22.1626C37.7343 22.4065 37.8694 22.7295 37.8694 23.1317C37.8694 23.6064 37.6915 23.9591 37.3354 24.1898ZM36.2773 22.5582H34.8829V23.8536H36.2773C36.7783 23.8536 37.0289 23.6327 37.0289 23.191C37.0289 22.7691 36.7783 22.5582 36.2773 22.5582ZM36.4652 25.9501C36.7157 25.9501 36.9069 25.8908 37.0388 25.7721C37.1772 25.6534 37.2464 25.4853 37.2464 25.2678C37.2464 25.0634 37.1772 24.9052 37.0388 24.7931C36.9069 24.6744 36.7157 24.6151 36.4652 24.6151H34.8829V25.9501H36.4652ZM42.8231 21.7868H43.6834V26.7314H42.8231V25.8809C42.3945 26.5336 41.7715 26.86 40.9539 26.86C40.2617 26.86 39.6717 26.6094 39.1838 26.1083C38.696 25.6007 38.452 24.9843 38.452 24.259C38.452 23.5339 38.696 22.9207 39.1838 22.4197C39.6717 21.912 40.2617 21.6582 40.9539 21.6582C41.7715 21.6582 42.3945 21.9846 42.8231 22.6373V21.7868ZM41.0627 26.0292C41.5638 26.0292 41.9824 25.8612 42.3187 25.5249C42.6549 25.1821 42.8231 24.7601 42.8231 24.259C42.8231 23.758 42.6549 23.3393 42.3187 23.0031C41.9824 22.6603 41.5638 22.4889 41.0627 22.4889C40.5683 22.4889 40.1529 22.6603 39.8167 23.0031C39.4805 23.3393 39.3124 23.758 39.3124 24.259C39.3124 24.7601 39.4805 25.1821 39.8167 25.5249C40.1529 25.8612 40.5683 26.0292 41.0627 26.0292ZM50.604 21.7868H51.4643V26.7314H44.6903V21.7868H45.5506V25.9105H47.6471V21.7868H48.5074V25.9105H50.604V21.7868ZM56.0763 21.7868H56.7685V26.7314H55.9181V23.2602L53.1787 26.7314H52.4865V21.7868H53.337V25.2578L56.0763 21.7868ZM64.2094 25.9105H64.8918V28.0566H64.0414V26.7314H60.3329V28.0566H59.4824V25.9105H60.0857C60.4021 25.4755 60.5603 24.8656 60.5603 24.0811V21.7868H64.2094V25.9105ZM61.0647 25.9105H63.359V22.5878H61.4108V24.0811C61.4108 24.8194 61.2954 25.4293 61.0647 25.9105ZM69.4235 21.7868H70.2839V26.7314H69.4235V25.8809C68.995 26.5336 68.3719 26.86 67.5544 26.86C66.8622 26.86 66.2721 26.6094 65.7843 26.1083C65.2964 25.6007 65.0525 24.9843 65.0525 24.259C65.0525 23.5339 65.2964 22.9207 65.7843 22.4197C66.2721 21.912 66.8622 21.6582 67.5544 21.6582C68.3719 21.6582 68.995 21.9846 69.4235 22.6373V21.7868ZM67.6632 26.0292C68.1643 26.0292 68.5829 25.8612 68.9191 25.5249C69.2554 25.1821 69.4235 24.7601 69.4235 24.259C69.4235 23.758 69.2554 23.3393 68.9191 23.0031C68.5829 22.6603 68.1643 22.4889 67.6632 22.4889C67.1688 22.4889 66.7534 22.6603 66.4171 23.0031C66.0809 23.3393 65.9128 23.758 65.9128 24.259C65.9128 24.7601 66.0809 25.1821 66.4171 25.5249C66.7534 25.8612 67.1688 26.0292 67.6632 26.0292ZM74.7127 21.7868H75.573V26.7314H74.7127V24.6646H72.1511V26.7314H71.2907V21.7868H72.1511V23.8437H74.7127V21.7868ZM80.0071 21.7868H80.8674V26.7314H80.0071V24.6646H77.4462V26.7314H76.5859V21.7868H77.4462V23.8437H80.0071V21.7868ZM83.9672 23.5668C84.4619 23.5668 84.8703 23.7152 85.1939 24.0119C85.5234 24.302 85.6878 24.681 85.6878 25.1491C85.6878 25.6172 85.5234 25.9996 85.1939 26.2962C84.8703 26.5863 84.4619 26.7314 83.9672 26.7314H81.8803V21.7868H82.7413V23.5668H83.9672ZM86.3306 21.7868H87.1909V26.7314H86.3306V21.7868ZM83.9672 25.9304C84.2113 25.9304 84.4155 25.8612 84.5806 25.7226C84.7516 25.5776 84.8379 25.3864 84.8379 25.1491C84.8379 24.9117 84.7516 24.7206 84.5806 24.5755C84.4155 24.4305 84.2113 24.358 83.9672 24.358H82.7413V25.9304H83.9672ZM88.812 24.6546C88.8982 25.0963 89.0988 25.4392 89.4157 25.6831C89.7386 25.9271 90.1338 26.049 90.6019 26.049C91.255 26.049 91.7298 25.8084 92.0261 25.3271L92.7581 25.7425C92.2767 26.4875 91.5513 26.86 90.5827 26.86C89.7976 26.86 89.1585 26.616 88.6638 26.1282C88.1758 25.6337 87.9318 25.0107 87.9318 24.259C87.9318 23.5141 88.1729 22.8944 88.6542 22.3999C89.1356 21.9055 89.7585 21.6582 90.523 21.6582C91.2484 21.6582 91.8381 21.9153 92.293 22.4296C92.7544 22.9372 92.9852 23.5503 92.9852 24.269C92.9852 24.3942 92.9756 24.5228 92.9557 24.6546H88.812ZM90.523 22.4691C90.0615 22.4691 89.6789 22.601 89.3759 22.8647C89.073 23.1218 88.885 23.4679 88.812 23.9031H92.1153C92.0431 23.435 91.858 23.079 91.5617 22.835C91.2646 22.5911 90.9189 22.4691 90.523 22.4691ZM98.5236 24.1997C99.0706 24.4239 99.3441 24.8161 99.3441 25.3765C99.3441 25.7919 99.1797 26.1446 98.8502 26.4347C98.5199 26.7182 98.0518 26.86 97.4458 26.86C96.4565 26.86 95.7938 26.4644 95.4577 25.6733L96.1801 25.248C96.371 25.7886 96.7964 26.0589 97.4554 26.0589C97.7849 26.0589 98.0393 25.9897 98.2169 25.8512C98.4012 25.7062 98.4941 25.5216 98.4941 25.2974C98.4941 25.0997 98.4182 24.9381 98.2663 24.8129C98.1211 24.6876 97.9235 24.625 97.6729 24.625H96.9512V23.8437H97.4849C97.7356 23.8437 97.9302 23.7844 98.0687 23.6657C98.2073 23.5404 98.2766 23.3724 98.2766 23.1614C98.2766 22.9504 98.1941 22.779 98.0289 22.6471C97.8712 22.5152 97.65 22.4493 97.3662 22.4493C96.8126 22.4493 96.4366 22.6834 96.2391 23.1515L95.5373 22.7461C95.8867 22.0208 96.4963 21.6582 97.3662 21.6582C97.9073 21.6582 98.3327 21.7966 98.6423 22.0735C98.9585 22.3505 99.117 22.69 99.117 23.0922C99.117 23.5932 98.9195 23.9624 98.5236 24.1997ZM104.074 21.7868H104.934V26.7314H104.074V25.8809C103.646 26.5336 103.023 26.86 102.205 26.86C101.513 26.86 100.922 26.6094 100.435 26.1083C99.9471 25.6007 99.7031 24.9843 99.7031 24.259C99.7031 23.5339 99.9471 22.9207 100.435 22.4197C100.922 21.912 101.513 21.6582 102.205 21.6582C103.023 21.6582 103.646 21.9846 104.074 22.6373V21.7868ZM102.313 26.0292C102.815 26.0292 103.233 25.8612 103.57 25.5249C103.906 25.1821 104.074 24.7601 104.074 24.259C104.074 23.758 103.906 23.3393 103.57 23.0031C103.233 22.6603 102.815 22.4889 102.313 22.4889C101.82 22.4889 101.404 22.6603 101.068 23.0031C100.731 23.3393 100.563 23.758 100.563 24.259C100.563 24.7601 100.731 25.1821 101.068 25.5249C101.404 25.8612 101.82 26.0292 102.313 26.0292ZM112.666 25.9105H113.348V28.0566H112.498V26.7314H105.941V21.7868H106.801V25.9105H108.878V21.7868H109.738V25.9105H111.805V21.7868H112.666V25.9105ZM117.569 21.7868H118.261V26.7314H117.41V23.2602L114.672 26.7314H113.979V21.7868H114.829V25.2578L117.569 21.7868ZM125.998 25.9105H126.681V28.0566H125.83V26.7314H119.274V21.7868H120.134V25.9105H122.211V21.7868H123.072V25.9105H125.138V21.7868H125.998V25.9105ZM127.722 24.6546C127.807 25.0963 128.009 25.4392 128.325 25.6831C128.648 25.9271 129.044 26.049 129.512 26.049C130.164 26.049 130.639 25.8084 130.936 25.3271L131.667 25.7425C131.187 26.4875 130.461 26.86 129.492 26.86C128.707 26.86 128.068 26.616 127.574 26.1282C127.086 25.6337 126.842 25.0107 126.842 24.259C126.842 23.5141 127.082 22.8944 127.563 22.3999C128.045 21.9055 128.668 21.6582 129.433 21.6582C130.157 21.6582 130.748 21.9153 131.203 22.4296C131.664 22.9372 131.895 23.5503 131.895 24.269C131.895 24.3942 131.885 24.5228 131.865 24.6546H127.722ZM129.433 22.4691C128.971 22.4691 128.589 22.601 128.285 22.8647C127.982 23.1218 127.794 23.4679 127.722 23.9031H131.024C130.952 23.435 130.768 23.079 130.471 22.835C130.174 22.5911 129.828 22.4691 129.433 22.4691ZM136.009 21.7868H136.869V26.7314H136.009V24.6646H133.447V26.7314H132.587V21.7868H133.447V23.8437H136.009V21.7868ZM139.969 23.5668C140.463 23.5668 140.872 23.7152 141.195 24.0119C141.525 24.302 141.69 24.681 141.69 25.1491C141.69 25.6172 141.525 25.9996 141.195 26.2962C140.872 26.5863 140.463 26.7314 139.969 26.7314H137.882V21.7868H138.743V23.5668H139.969ZM142.333 21.7868H143.193V26.7314H142.333V21.7868ZM139.969 25.9304C140.213 25.9304 140.417 25.8612 140.582 25.7226C140.754 25.5776 140.839 25.3864 140.839 25.1491C140.839 24.9117 140.754 24.7206 140.582 24.5755C140.417 24.4305 140.213 24.358 139.969 24.358H138.743V25.9304H139.969Z" fill="white"/>
</g>
</g>
<defs>
<clipPath id="clip0_3_371">
<rect width="173.974" height="28.75" fill="white" transform="translate(0.0128174 0.580078)"/>
</clipPath>
</defs>
</svg>
