<svg width="126" height="29" viewBox="0 0 126 29" fill="none" xmlns="http://www.w3.org/2000/svg">
<g id="14_.svg" clip-path="url(#clip0_3_362)">
<g id="Group" opacity="0.6">
<path id="Vector" d="M16.6769 9.59412V7.17666C16.6769 4.89702 16.6769 3.75841 15.9686 3.05011C15.2603 2.3418 14.1216 2.3418 11.842 2.3418H9.4246C7.14497 2.3418 6.00635 2.3418 5.29804 3.05011C4.58974 3.75841 4.58974 4.89702 4.58974 7.17666V9.59412" stroke="white" stroke-width="1.81307"/>
<path id="Vector_2" d="M8.89712 6.91506C9.42958 6.62477 10.0264 6.47266 10.6329 6.47266C11.2393 6.47266 11.8361 6.62477 12.3686 6.91506L18.1632 10.0746C18.7352 10.3865 19.2127 10.8468 19.5453 11.407C19.878 11.9673 20.0535 12.6069 20.0535 13.2584V19.227C20.0535 19.8786 19.878 20.5182 19.5453 21.0784C19.2127 21.6386 18.7352 22.0989 18.1632 22.4108L12.3686 25.5704C11.8361 25.8607 11.2393 26.0127 10.6329 26.0127C10.0264 26.0127 9.42958 25.8607 8.89712 25.5704L3.10134 22.4108C2.5295 22.0988 2.05227 21.6384 1.71982 21.0782C1.38738 20.518 1.21201 19.8785 1.21213 19.227V13.2572C1.21201 12.6058 1.38738 11.9663 1.71982 11.406C2.05227 10.8458 2.5295 10.3854 3.10134 10.0734L8.89712 6.91506Z" stroke="white" stroke-width="1.81307"/>
<path id="Vector_3" d="M9.60063 13.8517C10.06 13.0274 10.2896 12.6152 10.6329 12.6152C10.9761 12.6152 11.2058 13.0274 11.6651 13.8517L11.7836 14.0645C11.9141 14.299 11.9794 14.4151 12.081 14.4936C12.1836 14.5697 12.3106 14.5987 12.5644 14.6567L12.7941 14.7088C13.6861 14.9106 14.1321 15.0109 14.2385 15.353C14.3449 15.6939 14.0403 16.0492 13.4323 16.7599L13.2751 16.9437C13.1023 17.1467 13.0153 17.247 12.9766 17.3727C12.9379 17.4984 12.9512 17.6314 12.9766 17.9022L13.0007 18.1475C13.0926 19.0952 13.1386 19.5702 12.8618 19.7805C12.5837 19.992 12.1655 19.7999 11.3303 19.4155L11.1152 19.3151C10.8771 19.2064 10.7586 19.152 10.6329 19.152C10.5071 19.152 10.3887 19.2064 10.1506 19.3151L9.93547 19.4155C9.10025 19.7999 8.682 19.992 8.40402 19.7805C8.12598 19.5702 8.17317 19.0952 8.26504 18.1475L8.28921 17.9022C8.31454 17.6314 8.32789 17.4972 8.28921 17.3727C8.25053 17.247 8.1635 17.1467 7.9906 16.9437L7.8335 16.7599C7.22553 16.0492 6.92093 15.6939 7.0273 15.353C7.13366 15.0109 7.57963 14.9106 8.47171 14.7088L8.70134 14.6567C8.95521 14.5987 9.08207 14.5697 9.18483 14.4936C9.28636 14.4162 9.35167 14.299 9.48221 14.0645L9.60063 13.8517Z" stroke="white" stroke-width="1.81307"/>
<path id="Vector_4" d="M36.7251 5.13477V6.8933H33.9845V13.1281H32.1575V5.13477H36.7251ZM40.1293 7.41858H41.8422V13.1281H40.1293V12.5914C39.7525 13.0254 39.1929 13.288 38.4278 13.288C36.9319 13.288 35.6987 11.9748 35.6987 10.2733C35.6987 8.57192 36.9319 7.25872 38.4278 7.25872C39.1929 7.25872 39.7525 7.52135 40.1293 7.9553V7.41858ZM38.7704 11.6665C39.5583 11.6665 40.1293 11.1298 40.1293 10.2733C40.1293 9.41694 39.5583 8.8802 38.7704 8.8802C37.9826 8.8802 37.4116 9.41694 37.4116 10.2733C37.4116 11.1298 37.9826 11.6665 38.7704 11.6665ZM46.1705 7.25872C47.6664 7.25872 48.8997 8.57192 48.8997 10.2733C48.8997 11.9748 47.6664 13.288 46.1705 13.288C45.4055 13.288 44.8459 13.0254 44.4691 12.5914V15.4119H42.7563V7.41858H44.4691V7.9553C44.8459 7.52135 45.4055 7.25872 46.1705 7.25872ZM45.8279 11.6665C46.6159 11.6665 47.1868 11.1298 47.1868 10.2733C47.1868 9.41694 46.6159 8.8802 45.8279 8.8802C45.04 8.8802 44.4691 9.41694 44.4691 10.2733C44.4691 11.1298 45.04 11.6665 45.8279 11.6665ZM53.6734 7.41858H55.3862V13.1281H53.6734V12.5914C53.2965 13.0254 52.737 13.288 51.972 13.288C50.4761 13.288 49.2428 11.9748 49.2428 10.2733C49.2428 8.57192 50.4761 7.25872 51.972 7.25872C52.737 7.25872 53.2965 7.52135 53.6734 7.9553V7.41858ZM52.3145 11.6665C53.1025 11.6665 53.6734 11.1298 53.6734 10.2733C53.6734 9.41694 53.1025 8.8802 52.3145 8.8802C51.5266 8.8802 50.9557 9.41694 50.9557 10.2733C50.9557 11.1298 51.5266 11.6665 52.3145 11.6665ZM59.9544 7.41858H61.6673V13.1281H59.9544V11.0727H58.0132V13.1281H56.3003V7.41858H58.0132V9.47401H59.9544V7.41858ZM67.2064 7.41858V9.06291H65.5049V13.1281H63.7921V9.06291H62.0678V7.41858H67.2064ZM71.7138 7.41858H72.9702V13.1281H71.3025V10.2733L68.8591 13.1281H67.6029V7.41858H69.2705V10.2733L71.7138 7.41858ZM78.623 7.41858V13.1281H76.9559V11.4838H76.6018L75.4258 13.1281H73.4843L74.8204 11.2439C74.1129 10.89 73.7131 10.1591 73.7131 9.4512C73.7131 8.44628 74.4554 7.41858 75.8371 7.41858H78.623ZM75.9856 8.92589C75.6199 8.92589 75.3802 9.14285 75.3802 9.50826C75.3802 9.86223 75.6199 10.0678 75.9856 10.0678H76.9559V8.92589H75.9856ZM83.6295 5.13477H85.2277V13.1281H83.4007V7.06459L81.9849 7.45284L81.5396 5.88843L83.6295 5.13477ZM92.1969 10.1591V11.8492H91.3981V13.1281H89.5479V11.8492H85.9169V10.1591L88.4631 5.13477H90.427L87.8808 10.1591H89.5479V8.44628H91.3981V10.1591H92.1969ZM100.362 11.5295H101.105V14.6583H99.4377V13.1281H96.263V14.6583H94.5959V11.5295H95.3042C95.5895 11.0841 95.7611 10.536 95.7611 9.55396V7.41858H100.362V11.5295ZM97.0972 11.5295H98.6954V8.94871H97.4281V9.55396C97.4281 10.3875 97.3137 11.0156 97.0972 11.5295ZM105.268 7.41858H106.982V13.1281H105.268V11.0727H103.327V13.1281H101.614V7.41858H103.327V9.47401H105.268V7.41858ZM109.426 10.9585C109.643 11.5523 110.168 11.7578 110.796 11.7578C111.264 11.7578 111.664 11.5751 111.893 11.3239L113.263 12.1118C112.703 12.8883 111.858 13.288 110.773 13.288C108.821 13.288 107.61 11.9748 107.61 10.2733C107.61 8.57192 108.843 7.25872 110.648 7.25872C112.315 7.25872 113.548 8.54904 113.548 10.2733C113.548 10.5132 113.525 10.7415 113.479 10.9585H109.426ZM109.391 9.67953H111.846C111.664 9.01728 111.15 8.77744 110.636 8.77744C109.985 8.77744 109.552 9.09716 109.391 9.67953ZM115.148 6.74486V5.26038H118.574V6.74486H115.148ZM118.288 7.41858H119.544V13.1281H117.877V10.2733L115.433 13.1281H114.177V7.41858H115.844V10.2733L118.288 7.41858Z" fill="white"/>
<path id="Vector_5" d="M35.3914 21.9332H36.0308V26.5009H35.2452V23.2943L32.7147 26.5009H32.0752V21.9332H32.8609V25.1397L35.3914 21.9332ZM40.7759 21.9332V26.5009H39.9811V22.7006H38.1815V24.5642C38.1815 25.3132 38.0293 25.837 37.7247 26.1354C37.4263 26.4278 37.0031 26.5495 36.455 26.5009V25.7517C36.7656 25.7944 36.997 25.7274 37.1492 25.5508C37.3076 25.3681 37.3868 25.0331 37.3868 24.5459V21.9332H40.7759ZM45.0223 21.9332H45.6617V26.5009H44.8761V23.2943L42.3456 26.5009H41.7061V21.9332H42.4918V25.1397L45.0223 21.9332ZM51.6493 24.1531C52.1182 24.348 52.3526 24.7012 52.3526 25.2128C52.3526 25.5904 52.2247 25.901 51.969 26.1446C51.7193 26.3821 51.36 26.5009 50.891 26.5009H48.6072V21.9332H50.7083C51.1651 21.9332 51.5183 22.0489 51.768 22.2804C52.0177 22.5057 52.1426 22.8041 52.1426 23.1756C52.1426 23.6141 51.9781 23.9399 51.6493 24.1531ZM50.6718 22.6458H49.3837V23.8425H50.6718C51.1346 23.8425 51.366 23.6384 51.366 23.2304C51.366 22.8407 51.1346 22.6458 50.6718 22.6458ZM50.8454 25.7792C51.0768 25.7792 51.2534 25.7243 51.3752 25.6147C51.5031 25.5051 51.567 25.3498 51.567 25.1488C51.567 24.96 51.5031 24.8139 51.3752 24.7103C51.2534 24.6007 51.0768 24.5459 50.8454 24.5459H49.3837V25.7792H50.8454ZM53.4937 24.5824C53.5729 24.9905 53.7586 25.3072 54.0509 25.5325C54.3494 25.7578 54.7148 25.8705 55.1472 25.8705C55.7501 25.8705 56.1886 25.6482 56.4627 25.2037L57.1387 25.5873C56.6941 26.2755 56.0242 26.6196 55.1289 26.6196C54.4042 26.6196 53.8135 26.3943 53.3567 25.9436C52.906 25.4868 52.6807 24.9113 52.6807 24.217C52.6807 23.5288 52.9029 22.9564 53.3475 22.4996C53.7921 22.0429 54.3676 21.8145 55.0741 21.8145C55.744 21.8145 56.2891 22.052 56.7093 22.527C57.1356 22.9959 57.3488 23.5623 57.3488 24.2262C57.3488 24.3419 57.3396 24.4607 57.3214 24.5824H53.4937ZM55.0741 22.5635C54.6478 22.5635 54.2946 22.6854 54.0144 22.9289C53.7343 23.1665 53.5607 23.4862 53.4937 23.8882H56.5449C56.4778 23.4557 56.3073 23.1269 56.0333 22.9016C55.7592 22.6762 55.4395 22.5635 55.0741 22.5635ZM60.5096 21.8145C61.1491 21.8145 61.6942 22.0489 62.1449 22.5179C62.5955 22.9807 62.8209 23.5471 62.8209 24.217C62.8209 24.8869 62.5955 25.4564 62.1449 25.9253C61.6942 26.3882 61.1491 26.6196 60.5096 26.6196C59.7544 26.6196 59.1789 26.3182 58.7831 25.7152V28.3279H57.9883V21.9332H58.7831V22.7189C59.1789 22.1159 59.7544 21.8145 60.5096 21.8145ZM60.4091 25.8522C60.8659 25.8522 61.2496 25.697 61.5602 25.3864C61.8708 25.0697 62.0261 24.6799 62.0261 24.217C62.0261 23.7541 61.8708 23.3674 61.5602 23.0568C61.2496 22.7402 60.8659 22.5818 60.4091 22.5818C59.9463 22.5818 59.5596 22.7402 59.2489 23.0568C58.9384 23.3674 58.7831 23.7541 58.7831 24.217C58.7831 24.6799 58.9384 25.0697 59.2489 25.3864C59.5596 25.697 59.9463 25.8522 60.4091 25.8522ZM66.656 21.9332H67.4507V26.5009H66.656V24.5916H64.2899V26.5009H63.4952V21.9332H64.2899V23.8333H66.656V21.9332ZM68.9436 24.5824C69.0226 24.9905 69.2085 25.3072 69.5006 25.5325C69.7996 25.7578 70.1646 25.8705 70.597 25.8705C71.2003 25.8705 71.6389 25.6482 71.9126 25.2037L72.5888 25.5873C72.1442 26.2755 71.4741 26.6196 70.5786 26.6196C69.854 26.6196 69.2636 26.3943 68.8067 25.9436C68.3559 25.4868 68.1305 24.9113 68.1305 24.217C68.1305 23.5288 68.3532 22.9564 68.7979 22.4996C69.2419 22.0429 69.818 21.8145 70.5241 21.8145C71.1942 21.8145 71.739 22.052 72.1591 22.527C72.5854 22.9959 72.7986 23.5623 72.7986 24.2262C72.7986 24.3419 72.7897 24.4607 72.7713 24.5824H68.9436ZM70.5241 22.5635C70.0978 22.5635 69.7444 22.6854 69.4645 22.9289C69.184 23.1665 69.011 23.4862 68.9436 23.8882H71.995C71.9276 23.4557 71.7574 23.1269 71.4836 22.9016C71.2092 22.6762 70.8898 22.5635 70.5241 22.5635ZM78.006 21.9332V26.5009H77.2297V23.1847L75.7772 25.5234H75.6764L74.2239 23.1847V26.5009H73.438V21.9332H74.2879L75.722 24.2444L77.1562 21.9332H78.006ZM83.9972 24.1531C84.4657 24.348 84.7007 24.7012 84.7007 25.2128C84.7007 25.5904 84.5727 25.901 84.3166 26.1446C84.0667 26.3821 83.7078 26.5009 83.2386 26.5009H80.9546V21.9332H83.0561C83.5131 21.9332 83.8658 22.0489 84.1157 22.2804C84.3656 22.5057 84.4903 22.8041 84.4903 23.1756C84.4903 23.6141 84.3261 23.9399 83.9972 24.1531ZM83.0194 22.6458H81.7316V23.8425H83.0194C83.4824 23.8425 83.7139 23.6384 83.7139 23.2304C83.7139 22.8407 83.4824 22.6458 83.0194 22.6458ZM83.193 25.7792C83.4245 25.7792 83.6009 25.7243 83.7228 25.6147C83.8508 25.5051 83.9148 25.3498 83.9148 25.1488C83.9148 24.96 83.8508 24.8139 83.7228 24.7103C83.6009 24.6007 83.4245 24.5459 83.193 24.5459H81.7316V25.7792H83.193ZM89.0664 21.9332H89.8611V26.5009H89.0664V25.7152C88.6701 26.3182 88.0947 26.6196 87.3395 26.6196C86.7 26.6196 86.1552 26.3882 85.7044 25.9253C85.2536 25.4564 85.0282 24.8869 85.0282 24.217C85.0282 23.5471 85.2536 22.9807 85.7044 22.5179C86.1552 22.0489 86.7 21.8145 87.3395 21.8145C88.0947 21.8145 88.6701 22.1159 89.0664 22.7189V21.9332ZM87.4402 25.8522C87.9026 25.8522 88.2894 25.697 88.5999 25.3864C88.9112 25.0697 89.0664 24.6799 89.0664 24.217C89.0664 23.7541 88.9112 23.3674 88.5999 23.0568C88.2894 22.7402 87.9026 22.5818 87.4402 22.5818C86.9833 22.5818 86.5999 22.7402 86.2887 23.0568C85.9782 23.3674 85.8229 23.7541 85.8229 24.217C85.8229 24.6799 85.9782 25.0697 86.2887 25.3864C86.5999 25.697 86.9833 25.8522 87.4402 25.8522ZM95.3586 21.9332V26.5009H94.5823V23.1847L93.1298 25.5234H93.029L91.5765 23.1847V26.5009H90.7913V21.9332H91.6405L93.0746 24.2444L94.5088 21.9332H95.3586ZM102.236 25.7426H102.866V27.725H102.081V26.5009H98.6546V27.725H97.8694V25.7426H98.4264C98.7186 25.3407 98.865 24.7773 98.865 24.0526V21.9332H102.236V25.7426ZM99.3308 25.7426H101.45V22.6732H99.6501V24.0526C99.6501 24.7347 99.5439 25.2981 99.3308 25.7426ZM103.827 24.5824C103.907 24.9905 104.092 25.3072 104.385 25.5325C104.683 25.7578 105.049 25.8705 105.481 25.8705C106.084 25.8705 106.523 25.6482 106.796 25.2037L107.473 25.5873C107.028 26.2755 106.358 26.6196 105.463 26.6196C104.738 26.6196 104.147 26.3943 103.69 25.9436C103.24 25.4868 103.014 24.9113 103.014 24.217C103.014 23.5288 103.237 22.9564 103.682 22.4996C104.126 22.0429 104.702 21.8145 105.408 21.8145C106.078 21.8145 106.623 22.052 107.043 22.527C107.469 22.9959 107.682 23.5623 107.682 24.2262C107.682 24.3419 107.673 24.4607 107.655 24.5824H103.827ZM105.408 22.5635C104.981 22.5635 104.628 22.6854 104.348 22.9289C104.068 23.1665 103.895 23.4862 103.827 23.8882H106.879C106.812 23.4557 106.641 23.1269 106.367 22.9016C106.093 22.6762 105.773 22.5635 105.408 22.5635ZM111.483 21.9332H112.277V26.5009H111.483V24.5916H109.117V26.5009H108.322V21.9332H109.117V23.8333H111.483V21.9332ZM115.141 23.5776C115.598 23.5776 115.975 23.7146 116.273 23.9887C116.579 24.2566 116.73 24.6068 116.73 25.0392C116.73 25.4716 116.579 25.8249 116.273 26.0989C115.975 26.3668 115.598 26.5009 115.141 26.5009H113.213V21.9332H114.008V23.5776H115.141ZM115.141 25.7609C115.366 25.7609 115.555 25.697 115.708 25.569C115.866 25.4351 115.945 25.2584 115.945 25.0392C115.945 24.8199 115.866 24.6434 115.708 24.5093C115.555 24.3754 115.366 24.3084 115.141 24.3084H114.008V25.7609H115.141ZM120.307 21.9332V22.7006H118.105V26.5009H117.311V21.9332H120.307ZM124.046 21.9332H124.686V26.5009H123.9V23.2943L121.369 26.5009H120.73V21.9332H121.516V25.1397L124.046 21.9332Z" fill="white"/>
</g>
</g>
<defs>
<clipPath id="clip0_3_362">
<rect width="125.98" height="27.92" fill="white" transform="translate(0.00976562 0.980469)"/>
</clipPath>
</defs>
</svg>
